<svg xmlns="http://www.w3.org/2000/svg" width="46" height="46.009" viewBox="0 0 46 46.009"><path d="M45.746,16.625c-2.048,5.021-3.283,8.3-5.563,13.176a35.913,35.913,0,0,0,5.9,5.156A24.419,24.419,0,0,1,39.517,31.2C36.6,37.291,32.027,45.965,22.75,62.634c7.292-4.21,12.944-6.8,18.211-7.8a13.347,13.347,0,0,1-.346-3.123l.009-.234c.116-4.671,2.546-8.264,5.424-8.02s5.116,4.231,5,8.9a13.2,13.2,0,0,1-.294,2.509c5.21,1.019,10.8,3.608,18,7.76-1.418-2.611-2.684-4.965-3.893-7.207a41.951,41.951,0,0,0-7.942-5.476,23.707,23.707,0,0,1,6.333,2.492C50.956,29.557,49.961,26.517,45.746,16.625Z" transform="translate(-22.75 -16.625)" fill="#1793d1" fill-rule="evenodd"/></svg>