<svg xmlns="http://www.w3.org/2000/svg" width="46" height="57.257" viewBox="0 0 46 57.257"><g transform="translate(-592.427 -1512.532)"><path d="M51.673,57.19c-.956.013.181.492,1.428.684.345-.269.657-.541.936-.806a7.128,7.128,0,0,1-2.364.122" transform="translate(568.112 1485.399)" fill="#a80030"/><path d="M61.1,52.661a6.07,6.07,0,0,0,1.13-2.534,6.184,6.184,0,0,1-.8,1.758c-1.786,1.125-.168-.668,0-1.349-1.921,2.417-.264,1.45-.333,2.125" transform="translate(563.809 1488.649)" fill="#a80030"/><path d="M64.758,44.615c.115-1.721-.339-1.177-.491-.52.178.093.319,1.213.491.52" transform="translate(562.048 1491.769)" fill="#a80030"/><path d="M41.191,25.278A8.5,8.5,0,0,1,40.28,28.9l-.826.413c-.676,1.312.065.833-.418,1.877-1.055.938-3.2,2.935-3.889,3.118-.5-.011.34-.592.45-.819-1.412.97-1.133,1.456-3.293,2.045l-.063-.14c-5.327,2.506-12.727-2.46-12.63-9.237-.057.43-.162.323-.28.5a8.533,8.533,0,0,1,4.789-8.419A8.081,8.081,0,0,1,33.1,19.4a8.008,8.008,0,0,0-6.545-3.143A7.4,7.4,0,0,0,20.2,20.051c-1.448.912-1.617,3.515-2.248,3.992-.849,6.241,1.6,8.938,5.736,12.11.651.439.183.506.272.84a11.23,11.23,0,0,1-3.67-2.806,9.861,9.861,0,0,0,1.908,2.2c-1.3-.439-3.028-3.142-3.534-3.252,2.235,4,9.067,7.017,12.645,5.521A14.925,14.925,0,0,1,25.7,38c-.781-.4-1.844-1.235-1.654-1.391a13.951,13.951,0,0,0,14.151-2.005c1.075-.837,2.249-2.261,2.588-2.281-.511.768.087.37-.305,1.048,1.071-1.727-.465-.7,1.107-2.983l.581.8c-.216-1.434,1.78-3.175,1.578-5.442.458-.693.511.746.025,2.341.674-1.77.178-2.054.351-3.514a13.27,13.27,0,0,1,.559,1.53c-.439-1.71.451-2.88.671-3.874-.217-.1-.678.756-.783-1.264.015-.877.244-.46.332-.676a3.878,3.878,0,0,1-.9-2.062c.2-.3.533.786.8.831a20.052,20.052,0,0,1-.487-2.595c-.792-1.656-.28.221-.923-.711-.843-2.631.7-.61.8-1.806a21.127,21.127,0,0,1,2.342,5.911,24.223,24.223,0,0,0-1.171-4.213c.388.163-.625-2.983.5-.9C44.662,10.309,40.7,6.159,37.061,4.212c.446.408,1.008.92.806,1-1.811-1.078-1.493-1.162-1.752-1.618-1.476-.6-1.572.048-2.55,0-2.781-1.475-3.317-1.318-5.876-2.242l.116.544c-1.843-.614-2.147.233-4.138,0-.121-.095.638-.342,1.263-.433-1.781.235-1.7-.351-3.441.065A14.812,14.812,0,0,1,22.832.773c-1.453.088-3.468.845-2.846.157-2.369,1.057-6.578,2.541-8.939,4.755l-.074-.5c-1.082,1.3-4.719,3.88-5.009,5.562l-.289.068A31.183,31.183,0,0,0,4.3,13.834c-.736,1.255-1.079.483-.975.68a45.863,45.863,0,0,0-2.79,7.429c.443.662.011,3.985.178,6.645C-.013,41.724,9.934,54.478,20.806,57.423a21.889,21.889,0,0,0,5.98.607c-2.379-.68-2.686-.361-5-1.168-1.671-.787-2.038-1.686-3.221-2.713l.468.828c-2.322-.822-1.35-1.017-3.239-1.615l.5-.654a4.3,4.3,0,0,1-2.332-1.939l-.823.032c-.989-1.22-1.516-2.1-1.478-2.781l-.266.474c-.3-.517-3.639-4.577-1.907-3.632a3.9,3.9,0,0,1-1.213-1.321l.353-.4a6.707,6.707,0,0,1-1.48-2.9A1.884,1.884,0,0,0,8.2,41.05c-2.1-5.221-2.222-.288-3.816-5.314l.337-.027A11.161,11.161,0,0,1,4.1,34.482l.147-1.462c-1.515-1.752-.424-7.448-.205-10.572.152-1.27,1.264-2.623,2.111-4.743l-.516-.089c.986-1.72,5.629-6.906,7.779-6.639,1.042-1.309-.207,0-.411-.334,2.288-2.368,3.008-1.673,4.552-2.1,1.665-.989-1.429.386-.64-.377,2.879-.735,2.04-1.672,5.8-2.045.4.225-.919.348-1.25.641,2.4-1.174,7.591-.907,10.963.651,3.913,1.829,8.31,7.234,8.483,12.321l.2.053c-.1,2.022.309,4.36-.4,6.508l.483-1.017" transform="translate(591.891 1511.759)" fill="#a80030"/><path d="M32.254,59.764l-.134.67a12.875,12.875,0,0,0,1.928,2.444c-.577-1.126-1.006-1.592-1.794-3.114" transform="translate(577.101 1484.137)" fill="#a80030"/><path d="M34.5,58.553a5.314,5.314,0,0,1-.749-1.251A8.7,8.7,0,0,0,34.8,59.419l-.294-.867" transform="translate(576.335 1485.29)" fill="#a80030"/><path d="M82.978,48.916l-.14.352a16.994,16.994,0,0,1-1.665,5.314,16.7,16.7,0,0,0,1.805-5.666" transform="translate(554.132 1489.216)" fill="#a80030"/></g></svg>