<svg xmlns="http://www.w3.org/2000/svg" width="58.882" height="49.709" viewBox="0 0 58.882 49.709"><g transform="translate(-1276 -1512)"><path d="M4.413,36.139s20.639-.671,29.88,3.509c2.284.763,1.887,1.373,1.887,1.373s-.61,5.615,3.723,6.836,6.958.763,12.938,4.394a3.12,3.12,0,0,1-.153-1.19A12.522,12.522,0,0,1,54.4,52.923c.4.671,1.282.153,1.648.366a18.322,18.322,0,0,1,1.8,2.533v.549a4.963,4.963,0,0,0,2.838,1.77c-.763.61-1.77,1.373-1.77,1.373a13.818,13.818,0,0,0-4.7-3.418,3.09,3.09,0,0,1-.58-1.648s.152-.427-3.723-1.8-7.782-3.418-11.962-.824S31.664,64.672,46.4,65.647A14.232,14.232,0,0,1,53.086,68.3c5.1,3.54,10.406,12.512,9.338,17.506-.885-2.188-1.8-9.573-9.124-14.973-2.288-2.136-3.448-2.5-7.11-3.266s-8.972-.213-12.328-4.974,0-11.016,1.892-11.962c.458-.366,1.556-1.312,1.556-1.312s-2.289-5.432-2.284-7.629c-8.518-5.341-30.613-5.219-30.613-5.219l-.733-.092.733-.244Z" transform="translate(1272.32 1475.901)" fill="#9b9b9b"/><path d="M76.849,102.04S63,103.662,51.28,111.081c9.519-4.054,6.743-2.9,9.519-4.054a53.167,53.167,0,0,1,16.512-3.41,12.076,12.076,0,0,1-.461-1.577Z" transform="translate(1230.395 1417.821)" fill="#9b9b9b"/></g></svg>