<svg xmlns="http://www.w3.org/2000/svg" width="44.325" height="46" viewBox="0 0 44.325 46"><path d="M444.826,222.361a4.25,4.25,0,1,0-1.555-5.8A4.249,4.249,0,0,0,444.826,222.361Zm-8.7,27.486a12.367,12.367,0,0,1-5.231-1.155l-2.954,5.293a18.464,18.464,0,0,0,13.118,1.24,5.969,5.969,0,0,1,8-4.627,18.409,18.409,0,0,0,5.486-11.978l-6.058-.088a12.414,12.414,0,0,1-12.366,11.316Zm0-24.834a12.415,12.415,0,0,1,12.366,11.316l6.058-.089a18.409,18.409,0,0,0-5.487-11.978,5.969,5.969,0,0,1-8-4.627,18.462,18.462,0,0,0-13.117,1.24l2.954,5.292a12.365,12.365,0,0,1,5.23-1.155ZM423.709,237.43a12.4,12.4,0,0,1,5.28-10.158l-3.108-5.206a18.5,18.5,0,0,0-7.637,10.735,5.969,5.969,0,0,1,0,9.258,18.5,18.5,0,0,0,7.636,10.735l3.108-5.206a12.4,12.4,0,0,1-5.28-10.159ZM444.826,252.5a4.25,4.25,0,1,0,5.8,1.555A4.249,4.249,0,0,0,444.826,252.5Zm-30.35-19.319a4.25,4.25,0,1,0,4.25,4.251,4.25,4.25,0,0,0-4.25-4.251" transform="translate(-410.225 -214.43)" fill="#f47421"/></svg>