<svg xmlns="http://www.w3.org/2000/svg" width="73.771" height="63.895" viewBox="0 0 73.771 63.895"><path d="M26.8,44.085V36.309l-5.6,5.607a15.927,15.927,0,0,0,1.706,1.044,10.234,10.234,0,0,0,1.5.669,9.187,9.187,0,0,0,1.3.35,6.382,6.382,0,0,0,1.1.111m28.614-.648a1.35,1.35,0,0,0,.164.115,3.193,3.193,0,0,0,.444.234,3.378,3.378,0,0,0,.734.224,5.138,5.138,0,0,0,1.038.1,6.73,6.73,0,0,0,1.1-.1,8.346,8.346,0,0,0,1.312-.347A11.482,11.482,0,0,0,61.739,43a16.142,16.142,0,0,0,1.733-1.058l-4.248-4.15L45.149,23.662l-6.174,6.174L30.64,21.243,9.729,41.918a15.93,15.93,0,0,0,1.729,1.058,12.017,12.017,0,0,0,1.518.669,8.278,8.278,0,0,0,1.308.347,6.374,6.374,0,0,0,1.1.1,5.223,5.223,0,0,0,1.037-.1,3.793,3.793,0,0,0,.734-.224,2.87,2.87,0,0,0,.444-.227l.167-.12,9.445-9.445,3.371-3.237,9.344,9.344L43.2,43.44a1.485,1.485,0,0,0,.167.116,2.906,2.906,0,0,0,.444.231,4.026,4.026,0,0,0,.734.224,5.207,5.207,0,0,0,1.041.1,6.731,6.731,0,0,0,1.1-.1A7.943,7.943,0,0,0,48,43.664,11.471,11.471,0,0,0,49.519,43a16.143,16.143,0,0,0,1.733-1.058l-7.5-7.343,1.383-1.383,6.49,6.49,3.785,3.751M55.326,4.3,73.769,36.253,55.337,68.178H18.44L0,36.231,18.44,4.283Z" transform="translate(0.002 -4.283)" fill="#0b6d92"/></svg>