<svg xmlns="http://www.w3.org/2000/svg" width="71.43" height="75.51" viewBox="0 0 71.43 75.51">
  <path id="kde_logo" d="M48.634,6.058,36.076,7.26V58.97L48.5,57.1V35.053L65.2,59.505,78.3,55.362l-17.1-23.516L78.43,9.666,65.07,6.594,48.5,28.773Zm-28.466,12.6a.637.637,0,0,0-.385.184l-4.929,4.928a.638.638,0,0,0-.093.782l5.771,9.5A24.665,24.665,0,0,0,18.1,39.59l-10.594,2.2A.638.638,0,0,0,7,42.418v6.969a.636.636,0,0,0,.486.619l10.282,2.513a24.634,24.634,0,0,0,2.521,6.39l-5.952,9.076a.637.637,0,0,0,.083.8l4.927,4.928a.642.642,0,0,0,.783.1l9.327-5.664a24.659,24.659,0,0,0,5.9,2.453l2.176,10.463a.637.637,0,0,0,.624.507h6.97a.637.637,0,0,0,.619-.487L48.305,70.6a24.564,24.564,0,0,0,6.065-2.552l9.191,6.026a.637.637,0,0,0,.8-.081l4.929-4.928a.635.635,0,0,0,.093-.782l-3.355-5.529-1.085.343a.375.375,0,0,1-.424-.147l-4.9-7.178A19.97,19.97,0,1,1,33.643,28.477V23.325A24.6,24.6,0,0,0,30,24.933l-.005-.006-9.407-6.17a.639.639,0,0,0-.415-.1Z" transform="translate(-7 -6.058)" fill="#1d99f3"/>
</svg>
