<svg xmlns="http://www.w3.org/2000/svg" width="70" height="70.008" viewBox="0 0 70 70.008">
  <path id="lxde" d="M1221.924,0a35,35,0,0,0-35,35.008c0,.449.007.895.024,1.34,11.18-7.891,30.244-20.894,34.968-21.236,1.566-1.983,6.913-3.56,7.887-3.525l-2.791,3.493s-.089,3.57-1.132,4.266c9.745,6.512,14.422,29.933,16.411,44.123A35,35,0,0,0,1221.929,0Zm-1.73,31.627c-2.621.078-8,7.911-14.075,16.3-2.92,4.031-5.936,8.236-8.716,12.057a35.027,35.027,0,0,0,43.15,4.665c-4.151-12.691-12.043-32.958-20.12-33.006a1.148,1.148,0,0,0-.239-.016Zm-19.625,3.2c-2.4-.018-8.342,2.047-13.437,4.011a34.765,34.765,0,0,0,4.219,13.23c1.023-1.546,2.091-3.141,3.15-4.7,4.045-5.945,7.962-11.2,7.042-12.281a1.348,1.348,0,0,0-.973-.263Zm6.316,2.99c-1.938.294-8.937,9.017-14.5,15.981a35.1,35.1,0,0,0,3,4.035c5.716-9.36,12.115-19.563,11.771-19.984A.47.47,0,0,0,1206.884,37.815Z" transform="translate(-1186.924)" fill="#0068c8" fill-rule="evenodd"/>
</svg>
