<svg xmlns="http://www.w3.org/2000/svg" width="56.654" height="52.844" viewBox="0 0 56.654 52.844">
  <path id="xfce" d="M528.594,512.9c-.663,3.29.29,7.056,1.621,11.61a.621.621,0,0,1-.216.667c-.6.176-1.641-.011-1.842-.423-1.038-2.131-1.531-4.31-2.743-6.407a15.787,15.787,0,0,0-2.739-3.771c-1.255-1.137-2.238-1.361-3.581-.8a5.6,5.6,0,0,0-3.068,3.926,12.593,12.593,0,0,0,.072,4.873,37.945,37.945,0,0,0,1.282,4.961c-.409,1.21-2.872,7.85-3.467,12.454-.764,5.91-2.914,23.791,16.789,21.8,7.267-.733,13.189-3.28,18.793-5.893,2.568-1.2,5.79-2.742,8.886-4.443a46.559,46.559,0,0,0,8.17-5.447c2.2-1.934,3.8-4.052,3.512-6.163-.47-3.4-2.726-5.93-5.733-7.883s-8.172-3.782-11.9-4.87a54.345,54.345,0,0,0-13.258-2.233c-.257-4.647.363-10.763-2.58-14.325a4.006,4.006,0,0,0-2.867-1.433c-1.915.077-4.518.744-5.133,3.8Z" transform="translate(-513.441 -509.104)" fill="#04a"/>
</svg>
