<svg xmlns="http://www.w3.org/2000/svg" xmlns:xlink="http://www.w3.org/1999/xlink" width="1035.447" height="1035.447" viewBox="0 0 1035.447 1035.447"><defs><linearGradient id="a" x1="0.942" y1="0.262" x2="0.5" y2="1" gradientUnits="objectBoundingBox"><stop offset="0" stop-color="#202953"/><stop offset="1" stop-color="#0f1535"/></linearGradient></defs><path d="M370,741a381.8,381.8,0,0,1-76.382-7.7A376.922,376.922,0,0,1,158.1,676.272,380.1,380.1,0,0,1,20.784,509.524,377.1,377.1,0,0,1-1.3,438.382a382.694,382.694,0,0,1,0-152.763A376.923,376.923,0,0,1,55.727,150.1,380.106,380.106,0,0,1,222.476,12.784,377.1,377.1,0,0,1,293.619-9.3a382.694,382.694,0,0,1,152.763,0A376.92,376.92,0,0,1,581.9,47.727,380.1,380.1,0,0,1,719.216,214.476,377.1,377.1,0,0,1,741.3,285.618a382.694,382.694,0,0,1,0,152.763A376.926,376.926,0,0,1,684.273,573.9,380.111,380.111,0,0,1,517.524,711.216,377.109,377.109,0,0,1,446.382,733.3,381.8,381.8,0,0,1,370,741Zm.59-602.149c-123.37,0-223.739,100.369-223.739,223.739S247.22,586.331,370.59,586.331s223.74-100.37,223.74-223.741S493.961,138.851,370.59,138.851Z" transform="translate(646.225 16.294) rotate(60)" fill="url(#a)"/></svg>