<svg xmlns="http://www.w3.org/2000/svg" xmlns:xlink="http://www.w3.org/1999/xlink" width="1113.31" height="1113.31" viewBox="0 0 1113.31 1113.31"><defs><linearGradient id="a" x1="0.942" y1="0.262" x2="0.5" y2="1" gradientUnits="objectBoundingBox"><stop offset="0" stop-color="#202953"/><stop offset="1" stop-color="#0b112b"/></linearGradient></defs><path d="M398.5,798a410.507,410.507,0,0,1-82.126-8.279A405.266,405.266,0,0,1,170.663,728.4,408.688,408.688,0,0,1,23.023,549.117,405.455,405.455,0,0,1-.721,472.625a411.472,411.472,0,0,1,0-164.251A405.266,405.266,0,0,1,60.595,162.663,408.69,408.69,0,0,1,239.883,15.023,405.459,405.459,0,0,1,316.375-8.721a411.472,411.472,0,0,1,164.251,0A405.264,405.264,0,0,1,626.337,52.595,408.688,408.688,0,0,1,773.976,231.883a405.452,405.452,0,0,1,23.744,76.492,411.47,411.47,0,0,1,0,164.251,405.269,405.269,0,0,1-61.315,145.711A408.694,408.694,0,0,1,557.117,765.976a405.461,405.461,0,0,1-76.492,23.744A410.5,410.5,0,0,1,398.5,798Zm.634-647.429c-132.647,0-240.564,107.917-240.564,240.564S266.487,631.7,399.135,631.7,639.7,523.783,639.7,391.134,531.783,150.57,399.135,150.57Z" transform="translate(695.588 16.294) rotate(60)" fill="url(#a)"/></svg>