<svg xmlns="http://www.w3.org/2000/svg" xmlns:xlink="http://www.w3.org/1999/xlink" width="2506.488" height="1376.243" viewBox="0 0 2506.488 1376.243"><defs><linearGradient id="a" x1="0.5" x2="0.5" y2="1" gradientUnits="objectBoundingBox"><stop offset="0" stop-color="#0f1535"/><stop offset="1" stop-color="#202953"/></linearGradient><linearGradient id="b" x1="0.942" y1="0.262" x2="0.5" y2="1" gradientUnits="objectBoundingBox"><stop offset="0" stop-color="#202953"/><stop offset="1" stop-color="#0f1535"/></linearGradient></defs><g transform="translate(274.494 370.29)"><path d="M690,545H0L345,0,690,545h0ZM345,194.993h0L194.113,433.226H495.887L345,194.993Z" transform="matrix(0.985, -0.174, 0.174, 0.985, 516.428, -250.473)" fill="url(#a)"/><path d="M398.5,798a410.507,410.507,0,0,1-82.126-8.279A405.266,405.266,0,0,1,170.663,728.4,408.688,408.688,0,0,1,23.023,549.117,405.455,405.455,0,0,1-.721,472.625a411.472,411.472,0,0,1,0-164.251A405.266,405.266,0,0,1,60.595,162.663,408.69,408.69,0,0,1,239.883,15.023,405.459,405.459,0,0,1,316.375-8.721a411.472,411.472,0,0,1,164.251,0A405.264,405.264,0,0,1,626.337,52.595,408.688,408.688,0,0,1,773.976,231.883a405.452,405.452,0,0,1,23.744,76.492,411.47,411.47,0,0,1,0,164.251,405.269,405.269,0,0,1-61.315,145.711A408.694,408.694,0,0,1,557.117,765.976a405.461,405.461,0,0,1-76.492,23.744A410.5,410.5,0,0,1,398.5,798Zm.634-647.429c-132.647,0-240.564,107.917-240.564,240.564S266.487,631.7,399.135,631.7,639.7,523.783,639.7,391.134,531.783,150.57,399.135,150.57Z" transform="translate(1814.271 -91.2) rotate(60)" fill="url(#b)"/><path d="M370,741a381.8,381.8,0,0,1-76.382-7.7A376.922,376.922,0,0,1,158.1,676.272,380.1,380.1,0,0,1,20.784,509.524,377.1,377.1,0,0,1-1.3,438.382a382.694,382.694,0,0,1,0-152.763A376.923,376.923,0,0,1,55.727,150.1,380.106,380.106,0,0,1,222.476,12.784,377.1,377.1,0,0,1,293.619-9.3a382.694,382.694,0,0,1,152.763,0A376.92,376.92,0,0,1,581.9,47.727,380.1,380.1,0,0,1,719.216,214.476,377.1,377.1,0,0,1,741.3,285.618a382.694,382.694,0,0,1,0,152.763A376.926,376.926,0,0,1,684.273,573.9,380.111,380.111,0,0,1,517.524,711.216,377.109,377.109,0,0,1,446.382,733.3,381.8,381.8,0,0,1,370,741Zm.59-602.149c-123.37,0-223.739,100.369-223.739,223.739S247.22,586.331,370.59,586.331s223.74-100.37,223.74-223.741S493.961,138.851,370.59,138.851Z" transform="translate(371.73 -13.2) rotate(60)" fill="url(#b)"/></g></svg>