<svg xmlns="http://www.w3.org/2000/svg" xmlns:xlink="http://www.w3.org/1999/xlink" width="933.127" height="933.128" viewBox="0 0 933.127 933.128"><defs><linearGradient id="a" x1="0.5" x2="0.5" y2="1" gradientUnits="objectBoundingBox"><stop offset="0" stop-color="#0f1535"/><stop offset="1" stop-color="#202953"/></linearGradient></defs><path d="M660,670H10A10.011,10.011,0,0,1,0,660V10A10.011,10.011,0,0,1,10,0H660a10.011,10.011,0,0,1,10,10V660A10.011,10.011,0,0,1,660,670ZM149.341,139.342a10.011,10.011,0,0,0-10,10V521.82a10.011,10.011,0,0,0,10,10H521.82a10.011,10.011,0,0,0,10-10V149.341a10.011,10.011,0,0,0-10-10Z" transform="matrix(0.819, 0.574, -0.574, 0.819, 384.296, 0)" fill="url(#a)"/></svg>