<svg xmlns="http://www.w3.org/2000/svg" width="31.209" height="29.909" viewBox="0 0 31.209 29.909"><path d="M15.6.5A15.469,15.469,0,0,0,0,15.834,15.36,15.36,0,0,0,10.67,30.383c.78.144,1.066-.33,1.066-.737,0-.364-.013-1.329-.02-2.607-4.341.925-5.256-2.057-5.256-2.057a4.088,4.088,0,0,0-1.736-2.243c-1.414-.951.109-.931.109-.931a3.264,3.264,0,0,1,2.39,1.58,3.36,3.36,0,0,0,4.545,1.276,3.247,3.247,0,0,1,.988-2.051c-3.466-.384-7.108-1.7-7.108-7.577A5.858,5.858,0,0,1,7.255,10.92a5.365,5.365,0,0,1,.137-4.058S8.7,6.451,11.683,8.434a14.962,14.962,0,0,1,7.8,0c2.965-1.983,4.272-1.572,4.272-1.572a5.513,5.513,0,0,1,.156,4.058,5.882,5.882,0,0,1,1.6,4.114c0,5.891-3.648,7.187-7.12,7.564a3.638,3.638,0,0,1,1.053,2.837c0,2.052-.02,3.7-.02,4.2,0,.4.273.882,1.073.728a15.313,15.313,0,0,0,10.71-14.529A15.472,15.472,0,0,0,15.6.5Z" transform="translate(0 -0.5)" fill="#fff"/></svg>