<svg xmlns="http://www.w3.org/2000/svg" width="30.41" height="33.968" viewBox="0 0 30.41 33.968"><path d="M40,14.563,15.169.367A2.783,2.783,0,0,0,13.787,0h-.029c-.064,0-.128,0-.192.009l-.086.009q-.075.008-.149.021l-.054.007h0A2.784,2.784,0,0,0,11,2.788V31.18a2.785,2.785,0,0,0,2.281,2.74h0l.049.007q.08.014.16.022l.08.008c.063.005.126.008.189.009h.032a2.783,2.783,0,0,0,1.382-.367L40,19.406a2.788,2.788,0,0,0,1.4-2.42h0A2.788,2.788,0,0,0,40,14.563Zm-9.821-2.819-2.469,3.239L21.431,6.741ZM38.8,17.3,21.431,27.228,32.306,12.96,38.8,16.672a.361.361,0,0,1,0,.627Z" transform="translate(-10.998)" fill="#fff"/></svg>