<svg xmlns="http://www.w3.org/2000/svg" width="293.623" height="294.628" viewBox="0 0 293.623 294.628"><g transform="translate(-72.779 -126.117)"><g transform="translate(59.229 277.492) rotate(-45.12)" opacity="0.5"><path d="M198.149,47.332a14.4,14.4,0,0,0-14.192,14.6v94.244c0,11.189-5.817,18.786-18.348,25.669s-31.191,10.982-49.867,10.982-37.336-4.1-49.867-10.982-18.348-14.48-18.348-25.669c0-26.1.212-49.618.315-66.67.052-8.526.085-15.418.045-20.328-.02-2.455-.062-4.372-.135-5.986-.036-.807-.066-1.467-.2-2.52a12.536,12.536,0,0,0-.48-2.49,11.812,11.812,0,0,0-1.53-3.571,14.106,14.106,0,0,0-12.422-7.081,14.4,14.4,0,0,0-14.132,18c.03.975.075,2.077.09,3.886.037,4.58.006,11.433-.045,19.923-.1,16.98-.315,40.581-.315,66.835,0,22.843,14.841,40.784,33.29,50.918s41.1,14.537,63.729,14.537,45.28-4.4,63.729-14.537,33.29-28.074,33.29-50.918V61.929a14.4,14.4,0,0,0-14.612-14.6Z" fill="#fff" fill-rule="evenodd"/><path d="M115.007,47.767a14.4,14.4,0,0,0-14.192,14.6V168.025a14.4,14.4,0,1,0,28.8,0V62.364a14.4,14.4,0,0,0-14.612-14.6Z" fill="#fff" fill-rule="evenodd"/><path d="M48.007,19.2A14.4,14.4,0,1,1,33.6,4.8a14.4,14.4,0,0,1,14.4,14.4Z" transform="translate(0 -4.801)" fill="#fff"/><path d="M48.007,19.2A14.4,14.4,0,1,1,33.6,4.8a14.4,14.4,0,0,1,14.4,14.4Z" transform="translate(81.612 -4.801)" fill="#fff"/><path d="M48.007,19.2A14.4,14.4,0,1,1,33.6,4.8a14.4,14.4,0,0,1,14.4,14.4Z" transform="translate(165.624 -4.801)" fill="#fff"/></g></g></svg>