<svg xmlns="http://www.w3.org/2000/svg" viewBox="0 0 188 188">
  <defs>
    <clipPath id="a">
      <path
        d="M0 94.074c0-24.94 9.918-48.885 27.554-66.52C45.189 9.918 69.134 0 94.074 0c24.94 0 48.885 9.918 66.52 27.554 17.636 17.635 27.554 41.58 27.554 66.52 0 24.94-9.918 48.885-27.554 66.52-17.635 17.636-41.58 27.554-66.52 27.554-24.94 0-48.885-9.918-66.52-27.554C9.918 142.959 0 119.014 0 94.074"/>
    </clipPath>
    <clipPath id="b">
      <path
        d="M0 94.074c0-24.94 9.918-48.885 27.554-66.52C45.189 9.918 69.134 0 94.074 0c24.94 0 48.885 9.918 66.52 27.554 17.636 17.635 27.554 41.58 27.554 66.52 0 24.94-9.918 48.885-27.554 66.52-17.635 17.636-41.58 27.554-66.52 27.554-24.94 0-48.885-9.918-66.52-27.554C9.918 142.959 0 119.014 0 94.074"/>
    </clipPath>
    <clipPath id="c">
      <path
        d="M0 94.074c0-24.94 9.918-48.885 27.554-66.52C45.189 9.918 69.134 0 94.074 0c24.94 0 48.885 9.918 66.52 27.554 17.636 17.635 27.554 41.58 27.554 66.52 0 24.94-9.918 48.885-27.554 66.52-17.635 17.636-41.58 27.554-66.52 27.554-24.94 0-48.885-9.918-66.52-27.554C9.918 142.959 0 119.014 0 94.074"/>
    </clipPath>
    <clipPath id="d">
      <path
        d="M0 94.074c0-24.94 9.918-48.885 27.554-66.52C45.189 9.918 69.134 0 94.074 0c24.94 0 48.885 9.918 66.52 27.554 17.636 17.635 27.554 41.58 27.554 66.52 0 24.94-9.918 48.885-27.554 66.52-17.635 17.636-41.58 27.554-66.52 27.554-24.94 0-48.885-9.918-66.52-27.554C9.918 142.959 0 119.014 0 94.074"/>
    </clipPath>
    <clipPath id="e">
      <path
        d="M0 94.074c0-24.94 9.918-48.885 27.554-66.52C45.189 9.918 69.134 0 94.074 0c24.94 0 48.885 9.918 66.52 27.554 17.636 17.635 27.554 41.58 27.554 66.52 0 24.94-9.918 48.885-27.554 66.52-17.635 17.636-41.58 27.554-66.52 27.554-24.94 0-48.885-9.918-66.52-27.554C9.918 142.959 0 119.014 0 94.074"/>
    </clipPath>
    <clipPath id="f">
      <path
        d="M0 94.074c0-24.94 9.918-48.885 27.554-66.52C45.189 9.918 69.134 0 94.074 0c24.94 0 48.885 9.918 66.52 27.554 17.636 17.635 27.554 41.58 27.554 66.52 0 24.94-9.918 48.885-27.554 66.52-17.635 17.636-41.58 27.554-66.52 27.554-24.94 0-48.885-9.918-66.52-27.554C9.918 142.959 0 119.014 0 94.074"/>
    </clipPath>
    <clipPath id="g">
      <path
        d="M0 94.074c0-24.94 9.918-48.885 27.554-66.52C45.189 9.918 69.134 0 94.074 0c24.94 0 48.885 9.918 66.52 27.554 17.636 17.635 27.554 41.58 27.554 66.52 0 24.94-9.918 48.885-27.554 66.52-17.635 17.636-41.58 27.554-66.52 27.554-24.94 0-48.885-9.918-66.52-27.554C9.918 142.959 0 119.014 0 94.074"/>
    </clipPath>
    <clipPath id="h">
      <path
        d="M0 94.074c0-24.94 9.918-48.885 27.554-66.52C45.189 9.918 69.134 0 94.074 0c24.94 0 48.885 9.918 66.52 27.554 17.636 17.635 27.554 41.58 27.554 66.52 0 24.94-9.918 48.885-27.554 66.52-17.635 17.636-41.58 27.554-66.52 27.554-24.94 0-48.885-9.918-66.52-27.554C9.918 142.959 0 119.014 0 94.074"/>
    </clipPath>
    <clipPath id="i">
      <path
        d="M0 94.074c0-24.94 9.918-48.885 27.554-66.52C45.189 9.918 69.134 0 94.074 0c24.94 0 48.885 9.918 66.52 27.554 17.636 17.635 27.554 41.58 27.554 66.52 0 24.94-9.918 48.885-27.554 66.52-17.635 17.636-41.58 27.554-66.52 27.554-24.94 0-48.885-9.918-66.52-27.554C9.918 142.959 0 119.014 0 94.074"/>
    </clipPath>
  </defs>
  <path
    d="M0 94.074c0-24.94 9.918-48.885 27.554-66.52C45.189 9.918 69.134 0 94.074 0c24.94 0 48.885 9.918 66.52 27.554 17.636 17.635 27.554 41.58 27.554 66.52 0 24.94-9.918 48.885-27.554 66.52-17.635 17.636-41.58 27.554-66.52 27.554-24.94 0-48.885-9.918-66.52-27.554C9.918 142.959 0 119.014 0 94.074"
    fill="#fff"/>
  <path clip-path="url(#a)"
        d="M135.973 52.784V84.05c0 .452-.01.9-.021 1.356-.01.37-.02.73-.041 1.1q-.015.494-.062.987c-.01.236-.031.473-.051.709-.011.145-.021.277-.042.422-.02.257-.041.524-.082.781-.041.493-.1.977-.175 1.47-.01.124-.031.247-.051.37-.031.247-.072.494-.113.74v.031c-.061.359-.123.709-.185 1.069-.093.493-.185.987-.288 1.47-.01.021-.01.042-.02.063-.009.073-.023.145-.041.216-.01.021-.01.041-.021.062-.051.268-.113.524-.175.781-.017.116-.045.229-.082.34-.031.185-.083.369-.123.555-.031.1-.051.216-.093.318-.021.093-.051.186-.072.268-.216.843-.463 1.666-.72 2.488-.124.391-.247.771-.38 1.162-.01.041-.031.082-.041.123q-.185.525-.37 1.049c-.041.1-.082.205-.123.318-.124.329-.247.658-.38.987-.154.4-.319.791-.483 1.183-.144.35-.3.7-.452 1.048-.02.063-.051.113-.072.175-.175.37-.339.74-.514 1.1q-.263.57-.555 1.142c-.37.75-.771 1.5-1.172 2.23l-.555.987c-1.553 2.68-3.309 5.238-5.254 7.649q-.386.508-.8.986c-.38.463-.771.915-1.162 1.357-.35.391-.7.781-1.059 1.162q-1.48 1.588-3.023 3.013c-.206.205-.421.391-.637.586-.35.318-.7.627-1.059.925-.277.247-.565.483-.854.72-.74.606-1.48 1.192-2.231 1.737-.308.237-.627.463-.946.679-.514.37-1.039.72-1.563 1.06-.288.2-.586.38-.884.555-1.049.647-2.108 1.244-3.157 1.758-.257.134-.514.258-.771.381s-.524.247-.8.37q-.508.231-1.018.432c-.13.06-.263.111-.4.154-.4.165-.812.318-1.213.452-.5.186-1.018.34-1.521.483-.35.1-.709.2-1.059.277-.022.013-.047.021-.072.021-.35.083-.7.165-1.049.227-.091.022-.184.04-.277.052-.288.051-.576.1-.864.134-.409.065-.821.109-1.234.133-.139.021-.28.031-.421.031-.329.02-.658.031-.977.031h-.031c-.318 0-.637-.011-.956-.031-.124 0-.248-.01-.37-.031-.288-.01-.586-.041-.895-.082-.065-.002-.131-.009-.195-.021-.38-.051-.761-.113-1.151-.185-.329-.052-.658-.124-1-.206-1.854-.431-3.663-1.041-5.4-1.819-1.627-.722-3.204-1.553-4.719-2.488-.791-.483-1.583-1-2.365-1.542-.391-.278-.781-.556-1.172-.844q-1.836-1.343-3.629-2.92l-.987-.9c-.329-.3-.658-.607-.977-.9q-1.2-1.157-2.344-2.4-.447-.479-.895-.987c-.822-.925-1.624-1.881-2.385-2.879-.3-.359-.576-.729-.853-1.1q-1.559-2.067-2.951-4.309c-.247-.4-.494-.811-.73-1.213-.288-.483-.565-.977-.843-1.47a56.10866 56.10866 0 01-2.8-5.758c-.124-.288-.247-.576-.35-.863-.164-.37-.308-.751-.442-1.121q-.309-.817-.586-1.635c-.185-.545-.36-1.1-.535-1.655-.164-.535-.318-1.069-.462-1.614-.165-.576-.319-1.162-.453-1.758-.01-.062-.031-.124-.041-.186q-.292-1.233-.524-2.5c-.206-1.11-.37-2.241-.493-3.383-.052-.359-.083-.72-.113-1.079-.041-.381-.072-.751-.093-1.131-.051-.689-.082-1.389-.1-2.088-.01-.452-.021-.9-.021-1.356V52.784c.001-11.091 4.41-21.739 12.249-29.584 7.84-7.846 18.485-12.262 29.576-12.271h.042c3.119 0 6.229.345 9.273 1.028 9.374 2.144 17.732 7.445 23.668 15.011 5.709 7.257 8.841 16.213 8.9 25.446.013.123.013.246.013.37z"
        fill="#ecc19c"/>
  <path clip-path="url(#b)"
        d="M148.65 200.743v.01H39.575v-.01c-.009-5.991.974-11.942 2.91-17.612q.509-1.5 1.111-2.961v-.011c.391-.977.822-1.933 1.274-2.878 1.796-3.776 4.025-7.33 6.642-10.59.658-.813 1.326-1.6 2.015-2.365.339-.391.7-.77 1.059-1.151s.72-.74 1.089-1.11c1.84-1.832 3.809-3.529 5.892-5.079 1.038-.771 2.087-1.491 3.177-2.189 1.09-.698 2.2-1.348 3.331-1.964.011-.011.025-.019.041-.02.442-.237.874-.494 1.306-.761 1.288-.771 2.521-1.629 3.691-2.57 4.065-3.225 7.349-7.328 9.603-12.002 2.254-4.674 3.421-9.798 3.413-14.987l7.947.041 8.174.042c-.01 5.17 1.147 10.275 3.385 14.936 2.238 4.66 5.498 8.755 9.539 11.98.732.601 1.493 1.164 2.282 1.687.083.061.154.112.237.164.37.247.74.493 1.131.72.421.257.853.514 1.285.751.067.018.13.049.185.092.9.5 1.8 1.028 2.673 1.573.422.257.843.524 1.254.822.854.545 1.686 1.142 2.5 1.759 0 .003.001.005.003.007s.004.003.007.003h.01c1.039.771 2.046 1.594 3.033 2.437.987.843 1.933 1.727 2.848 2.643 5.09 5.054 9.128 11.067 11.879 17.691a54.2658 54.2658 0 014.149 20.902z"
        fill="#ecc19c"/>
  <path clip-path="url(#c)"
        d="M148.646 200.739H39.572c-.009-5.991.974-11.942 2.91-17.612q.509-1.5 1.11-2.961v-.011c.391-.977.823-1.933 1.275-2.879 1.796-3.776 4.025-7.329 6.642-10.59.658-.812 1.327-1.6 2.015-2.364.339-.391.7-.771 1.059-1.151s.72-.74 1.09-1.11c1.839-1.832 3.808-3.529 5.891-5.079 1.039-.771 2.087-1.491 3.177-2.19.565-.359 1.131-.709 1.706-1.048.535-.319 1.08-.628 1.625-.926.005-.006.011-.01.019-.012.007-.002.015-.001.022.002v-.008c.442-.247.874-.493 1.306-.751 1.283-.776 2.509-1.642 3.67-2.591.006.007.014.015.021.021 2.728 2.799 5.988 5.024 9.588 6.544 3.6 1.521 7.468 2.306 11.376 2.309h.083c3.915.001 7.792-.78 11.401-2.299 3.608-1.518 6.877-3.743 9.614-6.543l.01-.011c.728.605 1.486 1.173 2.272 1.7.082.061.154.112.236.164.37.247.751.483 1.131.72.421.257.854.5 1.285.74.065.025.127.056.185.093.483.268.977.545 1.45.832.412.247.823.494 1.224.751.421.257.843.524 1.254.822.854.545 1.686 1.142 2.5 1.759h.021c1.038.781 2.056 1.594 3.033 2.446.977.852 1.933 1.728 2.848 2.643 5.089 5.054 9.126 11.067 11.876 17.691 2.751 6.623 4.161 13.727 4.149 20.899z"
        fill="#eb6d4a"/>
  <path clip-path="url(#d)"
        d="M135.973 84.05c0 .452-.01.9-.021 1.356-.01.37-.02.73-.041 1.1q-.015.494-.062.987c-.01.236-.031.473-.051.709-.011.145-.021.277-.042.422-.02.257-.041.524-.082.781-.052.493-.1.986-.175 1.47-.01.124-.031.247-.051.37-.031.247-.072.494-.113.74-.051.37-.123.74-.185 1.1-.082.432-.165.853-.257 1.274-.012.087-.029.173-.052.258-.01.071-.031.144-.041.216-.01.021-.01.041-.021.062-.001.045-.008.09-.02.134-.051.216-.093.432-.154.647-.017.116-.045.229-.082.34-.041.202-.093.403-.154.6-.01.094-.031.187-.062.277-.021.093-.051.186-.072.268-.216.843-.463 1.666-.72 2.488-.124.391-.247.771-.38 1.162-.01.041-.031.082-.041.123q-.185.525-.37 1.049c-.041.1-.082.205-.123.318-.124.329-.247.658-.38.987-.154.4-.319.791-.483 1.183-.144.35-.3.7-.452 1.048-.02.063-.051.113-.072.175-.175.37-.339.74-.514 1.1q-.263.57-.555 1.142c-.37.75-.771 1.5-1.172 2.23l-.555.987c-1.553 2.68-3.309 5.238-5.254 7.649q-.386.508-.8.986c-.38.463-.771.915-1.162 1.357-.35.391-.7.781-1.059 1.162q-1.48 1.588-3.023 3.013c-.206.205-.421.391-.637.586-.35.318-.7.627-1.059.925-.277.247-.565.483-.854.72-.74.606-1.48 1.192-2.231 1.737-.308.237-.627.463-.946.679-.514.37-1.039.72-1.563 1.06-.288.2-.586.38-.884.555-1.049.647-2.108 1.244-3.157 1.758-.257.134-.514.258-.771.381s-.524.247-.8.37q-.508.231-1.018.432c-.13.06-.263.111-.4.154-.4.165-.812.318-1.213.452-.5.186-1.018.34-1.521.483-.35.1-.709.2-1.059.277-.022.013-.047.021-.072.021-.35.083-.7.165-1.049.227-.091.022-.184.04-.277.052-.288.051-.576.1-.864.134-.409.065-.821.109-1.234.133-.139.021-.28.031-.421.031-.329.02-.658.031-.977.031h-.031c-.318 0-.637-.011-.956-.031-.124 0-.248-.01-.37-.031-.288-.01-.586-.041-.895-.082-.065-.002-.131-.009-.195-.021-.38-.051-.761-.113-1.151-.185-.329-.052-.658-.124-1-.206-1.854-.431-3.663-1.041-5.4-1.819-1.627-.722-3.204-1.553-4.719-2.488-.791-.473-1.573-.987-2.365-1.542-.391-.278-.781-.556-1.172-.844q-1.836-1.343-3.629-2.92l-.987-.9c-.329-.3-.658-.607-.977-.9q-1.2-1.157-2.344-2.4-.447-.479-.895-.987c-.822-.925-1.624-1.881-2.385-2.879-.3-.359-.576-.729-.853-1.1q-1.559-2.067-2.951-4.309c-.247-.4-.494-.811-.73-1.213-.288-.483-.565-.977-.843-1.47a56.10866 56.10866 0 01-2.8-5.758c-.124-.288-.247-.576-.35-.863-.164-.37-.308-.751-.442-1.121q-.309-.817-.586-1.635c-.185-.545-.36-1.1-.535-1.655-.164-.535-.318-1.069-.462-1.614-.165-.576-.319-1.162-.453-1.758-.01-.062-.031-.124-.041-.186q-.292-1.233-.524-2.5c-.206-1.11-.37-2.241-.493-3.383-.052-.359-.083-.72-.113-1.079-.041-.381-.072-.751-.093-1.131-.051-.689-.082-1.389-.1-2.088-.01-.452-.021-.9-.021-1.356l6.683 13.14L70.42 102.2 84 103.42h.01l10.065.915h.062l9.417.853s0-.01.01 0l21 1.893z"
        fill="#543e36"/>
  <g fill="#543e36">
    <path clip-path="url(#e)"
          d="M94.159 90.651l-.01 10.127v.01l-.01 3.548v2.786l-.01 9.253v.011l-.01-.011h-.01l-.031-.021L53.64 95.771c-.01-.062-.031-.124-.041-.186q-.292-1.233-.524-2.5c-.206-1.11-.37-2.241-.493-3.383-.052-.359-.083-.72-.113-1.079-.041-.381-.072-.751-.093-1.131-.051-.689-.082-1.389-.1-2.088-.01-.452-.021-.9-.021-1.356V71.764c0 .175.01.35.01.524.109 3.241.602 6.458 1.47 9.582.658 2.429 1.536 4.793 2.622 7.063v.01c2.694 5.6 6.3 9.407 9.623 10.024.206.031.421.052.627.072 1.335.15 2.677.225 4.02.226 5.244 0 9.9-4.215 12.831-5.922.021-.01.041-.021.062-.03.154-.093.308-.186.442-.278.039-.028.08-.051.124-.071 3.085-1.594 6.521-2.389 9.993-2.313h.083z"/>
    <path clip-path="url(#f)"
          d="M135.981 71.759l-.01 12.286c-.002 3.031-.277 6.056-.822 9.037-.216 1.172-.463 2.334-.751 3.485l-9.49 13.705-30.783 6.1h-.01l-.01.011v-.011l-.031-25.728h.083c3.474-.074 6.912.721 10 2.313.04.02.078.044.113.072.144.092.3.185.453.277.016.013.033.023.051.031 2.94 1.706 7.587 5.925 12.831 5.925 1.343-.001 2.685-.076 4.02-.226.216-.021.421-.041.637-.072 3.311-.617 6.93-4.421 9.613-10.024v-.01c1.086-2.27 1.963-4.634 2.622-7.063.883-3.167 1.376-6.43 1.47-9.716.014-.135.014-.259.014-.392z"/>
  </g>
  <path clip-path="url(#g)"
        d="M83.853 103.95c0 .841 1.081 1.648 3.004 2.242 1.922.595 4.532.929 7.251.929 2.719 0 5.329-.334 7.251-.929 1.923-.594 3.004-1.401 3.004-2.242s-1.081-1.648-3.004-2.242c-1.922-.595-4.532-.929-7.251-.929-2.719 0-5.329.334-7.251.929-1.923.594-3.004 1.401-3.004 2.242z"
        fill="#ecc19c"/>
  <path clip-path="url(#h)"
        d="M94.116 10.929h-.04c-11.091.01-21.735 4.426-29.574 12.271-7.84 7.846-12.249 18.493-12.25 29.584V71.24s1.737-11.012 6.416-16.358c5.079-5.809 3.794-14.641 15.186-14.641 7.351 0 7.762 2.714 20.213 2.714h.06c12.451 0 12.862-2.714 20.213-2.714 11.392 0 10.106 8.831 15.186 14.641 4.678 5.346 6.415 16.358 6.415 16.358V52.784c-.002-11.091-4.411-21.738-12.25-29.584-7.84-7.845-18.484-12.261-29.575-12.271z"
        fill="#543e36"/>
  <path clip-path="url(#i)"
        d="M121.74 153.721l-1.131 1.152c-4.626 4.719-10.428 8.119-16.806 9.849-6.377 1.73-13.102 1.728-19.479-.007-6.376-1.735-12.176-5.14-16.798-9.862l-1.08-1.11c.535-.319 1.08-.628 1.625-.926.005-.006.011-.01.019-.012.007-.002.015-.001.022.002v-.007c.442-.247.874-.493 1.306-.751 1.283-.776 2.509-1.642 3.67-2.591.006.007.014.015.021.021 2.728 2.799 5.988 5.024 9.588 6.544 3.6 1.521 7.468 2.306 11.376 2.309h.083c3.915.001 7.792-.78 11.401-2.299 3.608-1.518 6.877-3.743 9.614-6.543l.01-.011c.728.605 1.486 1.173 2.272 1.7.082.061.154.112.236.164.37.247.751.483 1.131.72.421.257.854.5 1.285.74.065.025.127.056.185.093.484.261.977.538 1.45.825z"
        fill="#c34628"/>
</svg>
